<?xml version="1.0" encoding="UTF-8"?> <svg xmlns="http://www.w3.org/2000/svg" width="284" height="140" viewBox="0 0 284 140" fill="none"> <path fill-rule="evenodd" clip-rule="evenodd" d="M142.725 73.5756L142.537 73.5752L142.373 73.5746C122.104 73.52 103.039 69.8364 88.6482 63.1818C73.7113 56.2766 65.479 46.9186 65.479 36.8423C65.479 26.7661 73.705 17.4081 88.6482 10.5029C101.588 4.51945 118.306 0.932762 136.281 0.230425C138.44 0.077492 140.626 0 142.83 0C145.032 0 147.215 0.0773312 149.372 0.22993C167.35 0.930467 184.072 4.51216 197.013 10.4964C211.95 17.4016 220.182 26.7596 220.182 36.8359C220.182 46.9122 211.956 56.2701 197.013 63.1753C182.701 69.7936 163.765 73.4732 143.619 73.5669C143.356 73.5728 143.094 73.5757 142.83 73.5757L142.725 73.5756ZM161.632 67.9907C181.529 63.5023 195.992 52.1034 197.178 38.59H178.276C177.728 50.9754 171.208 61.7799 161.632 67.9907ZM174.84 35.05H152.925L157.504 23.091C157.686 22.6379 157.779 22.3208 157.779 22.1396C157.779 21.6284 157.297 21.376 156.333 21.376H154.862C154.28 21.376 153.923 21.4277 153.785 21.5248C153.648 21.6284 153.472 21.9519 153.253 22.4956L143.105 49.7604L132.958 22.4956C132.739 21.9455 132.563 21.6219 132.426 21.5248C132.288 21.4277 131.931 21.376 131.349 21.376H129.821C128.857 21.376 128.375 21.6284 128.375 22.1396C128.375 22.3208 128.469 22.6379 128.651 23.091L133.213 35.05H110.82C111.749 17.6291 125.75 3.75359 142.83 3.75359V3.74712C159.91 3.74712 173.911 17.6286 174.84 35.05ZM174.848 38.59H151.569L144.088 58.1282C143.8 58.8531 143.462 59.2219 143.08 59.2219C142.661 59.2219 142.31 58.8595 142.016 58.1282L134.563 38.59H110.812C111.667 56.0476 125.647 69.9827 142.732 70.0356L142.83 70.0357L142.928 70.0356C160.012 69.9827 173.993 56.0476 174.848 38.59ZM178.269 35.05H197.183C196.024 21.3959 181.31 9.88809 161.122 5.47258C170.939 11.6024 177.665 22.5078 178.269 35.05ZM107.391 35.05C107.995 22.5071 114.722 11.6012 124.54 5.47152C104.351 9.88541 89.6366 21.391 88.4777 35.05H107.391ZM107.384 38.59H88.4827C89.6681 52.1081 104.132 63.5048 124.03 67.9917C114.453 61.781 107.932 50.976 107.384 38.59ZM195.617 59.9525C190.386 62.3699 184.51 64.3841 178.166 65.9608C179.991 65.0669 181.742 64.0989 183.409 63.0593C193.873 56.535 199.921 47.9027 200.614 38.59H216.654C215.709 46.5498 208.325 54.0775 195.617 59.9525ZM216.649 35.05H200.619C199.952 25.7104 193.899 17.0507 183.409 10.5099C181.886 9.56032 180.293 8.67048 178.639 7.84229C184.802 9.40103 190.516 11.3749 195.617 13.7322C208.302 19.5962 215.682 27.1069 216.649 35.05ZM90.0442 13.7322C95.1482 11.3733 100.867 9.39833 107.035 7.83909C105.375 8.67004 103.779 9.56311 102.252 10.5164C91.7638 17.0557 85.7118 25.7128 85.042 35.05H69.0123C69.9796 27.1069 77.3598 19.5962 90.0442 13.7322ZM69.007 38.59H85.0462C85.7368 47.9051 91.7855 56.54 102.252 63.0658C103.911 64.1003 105.653 65.0639 107.468 65.9541C101.134 64.3783 95.2674 62.3664 90.0442 59.9525C77.3361 54.0775 69.952 46.5498 69.007 38.59ZM7.18686 92.566H0.78479L10.2534 129.284L16.8438 129.364L26.5276 92.566H21.1477L14.1538 121.859L7.18686 92.566ZM28.148 109.136L33.5548 109.809C34.039 106.975 35.5095 105.558 37.9663 105.558C39.4726 105.558 40.5128 106.052 41.0866 107.038C41.6784 108.024 41.9743 109.486 41.9743 111.422V112.525C41.4363 112.507 41.0418 112.498 40.7907 112.498C35.7695 112.498 32.2367 113.359 30.1923 115.081C28.1659 116.802 27.1527 119.143 27.1527 122.102C27.1527 124.522 27.8431 126.441 29.224 127.858C30.6227 129.257 32.4698 129.956 34.7652 129.956C38.1546 129.956 40.701 128.226 42.4047 124.765C42.4047 126.791 42.5212 128.297 42.7544 129.284H48.0536C47.7308 128.028 47.5694 125.527 47.5694 121.779V112.525C47.5694 109.8 47.3811 107.764 47.0045 106.419C46.6279 105.074 45.7043 103.918 44.2338 102.949C42.7813 101.963 40.8355 101.47 38.3967 101.47C35.6709 101.47 33.3665 102.142 31.4835 103.487C29.6185 104.832 28.5066 106.715 28.148 109.136ZM40.3334 115.942C40.71 115.942 41.257 115.977 41.9743 116.049V117.367C41.9743 120.003 41.4363 122.075 40.3603 123.581C39.3023 125.087 38.0649 125.841 36.6482 125.841C34.2273 125.841 33.0168 124.451 33.0168 121.671C33.0168 117.851 35.4557 115.942 40.3334 115.942ZM59.3309 102.115H54.1393V129.284H59.7613V114.059C59.7613 110.831 60.1468 108.679 60.9179 107.603C61.707 106.509 62.8009 105.962 64.1997 105.962C65.5446 105.962 66.4233 106.392 66.8358 107.253C67.2483 108.096 67.4545 109.701 67.4545 112.068V129.284H73.0496V111.772C73.0496 109.118 72.8971 107.181 72.5923 105.962C72.3054 104.725 71.597 103.666 70.4672 102.788C69.3554 101.909 67.8849 101.47 66.0557 101.47C62.8278 101.47 60.5862 103.084 59.3309 106.312V102.115ZM85.8063 94.5565L80.7492 95.0407L80.4533 102.115H76.7681V106.634H80.2919V119.008C80.2919 121.877 80.4443 124.011 80.7492 125.41C81.054 126.809 81.7624 127.921 82.8742 128.746C83.9861 129.553 85.5911 129.956 87.6892 129.956C88.9804 129.956 90.3792 129.795 91.8855 129.472V125.007C91.0427 125.132 90.2895 125.195 89.626 125.195C88.3707 125.195 87.474 124.98 86.9361 124.549C86.3981 124.101 86.0753 123.536 85.9677 122.855C85.8601 122.155 85.8063 120.748 85.8063 118.632V106.634H90.9979V102.115H85.8063V94.5565ZM95.6848 109.136L101.092 109.809C101.576 106.975 103.046 105.558 105.503 105.558C107.01 105.558 108.05 106.052 108.623 107.038C109.215 108.024 109.511 109.486 109.511 111.422V112.525C108.973 112.507 108.579 112.498 108.328 112.498C103.306 112.498 99.7736 113.359 97.7292 115.081C95.7028 116.802 94.6896 119.143 94.6896 122.102C94.6896 124.522 95.38 126.441 96.7608 127.858C98.1596 129.257 100.007 129.956 102.302 129.956C105.691 129.956 108.238 128.226 109.942 124.765C109.942 126.791 110.058 128.297 110.291 129.284H115.59C115.268 128.028 115.106 125.527 115.106 121.779V112.525C115.106 109.8 114.918 107.764 114.541 106.419C114.165 105.074 113.241 103.918 111.771 102.949C110.318 101.963 108.372 101.47 105.934 101.47C103.208 101.47 100.903 102.142 99.0204 103.487C97.1553 104.832 96.0435 106.715 95.6848 109.136ZM107.87 115.942C108.247 115.942 108.794 115.977 109.511 116.049V117.367C109.511 120.003 108.973 122.075 107.897 123.581C106.839 125.087 105.602 125.841 104.185 125.841C101.764 125.841 100.554 124.451 100.554 121.671C100.554 117.851 102.993 115.942 107.87 115.942ZM142.792 101.9V97.7845C142.129 97.6948 141.573 97.65 141.125 97.65C139.6 97.65 138.435 98.0176 137.628 98.7528C136.839 99.4702 136.301 100.77 136.014 102.653C134.418 101.864 132.705 101.47 130.876 101.47C128.078 101.47 125.792 102.295 124.016 103.944C122.241 105.576 121.353 107.719 121.353 110.373C121.353 113.476 122.519 115.798 124.85 117.34C122.178 118.614 120.842 120.434 120.842 122.801C120.842 124.666 121.829 126.145 123.801 127.239C121.165 128.118 119.847 129.867 119.847 132.485C119.847 134.547 120.717 136.197 122.456 137.434C124.214 138.69 126.993 139.317 130.795 139.317C134.74 139.317 137.78 138.6 139.914 137.165C142.048 135.749 143.115 133.659 143.115 130.898C143.115 129.104 142.703 127.661 141.878 126.567C141.071 125.455 139.986 124.72 138.623 124.361C137.26 124.002 135.234 123.751 132.544 123.608C129.423 123.447 127.495 123.231 126.76 122.962C126.043 122.693 125.684 122.102 125.684 121.187C125.684 120.129 126.366 119.34 127.729 118.82C128.93 119.143 130.078 119.304 131.172 119.304C134.059 119.304 136.354 118.461 138.058 116.775C139.762 115.09 140.613 113.019 140.613 110.562C140.613 108.392 139.932 106.446 138.569 104.725C138.874 102.734 139.851 101.739 141.501 101.739C141.842 101.739 142.272 101.792 142.792 101.9ZM131.145 105.155C133.602 105.155 134.83 106.93 134.83 110.481C134.83 113.996 133.557 115.753 131.01 115.753C128.428 115.753 127.137 114.014 127.137 110.535C127.137 106.948 128.473 105.155 131.145 105.155ZM124.931 131.624C124.931 130.082 125.711 128.925 127.271 128.154C128.293 128.208 129.818 128.27 131.844 128.342C134.247 128.414 135.852 128.683 136.659 129.149C137.484 129.598 137.897 130.431 137.897 131.651C137.897 134.144 135.745 135.39 131.441 135.39C129.109 135.39 127.442 135.085 126.437 134.475C125.433 133.866 124.931 132.915 124.931 131.624ZM150.761 116.533H166.121C166.067 113.18 165.717 110.472 165.071 108.41C164.426 106.33 163.314 104.653 161.736 103.38C160.158 102.106 158.212 101.47 155.899 101.47C152.599 101.47 149.963 102.743 147.99 105.289C146.018 107.836 145.031 111.44 145.031 116.103C145.031 120.64 146.009 124.083 147.963 126.432C149.918 128.782 152.536 129.956 155.818 129.956C161.18 129.956 164.534 127.078 165.878 121.321L160.768 120.649C160.104 124.038 158.517 125.733 156.006 125.733C154.5 125.733 153.245 125.123 152.24 123.904C151.254 122.666 150.761 120.21 150.761 116.533ZM155.71 105.558C158.831 105.558 160.391 107.952 160.391 112.741H150.895C151.182 107.952 152.787 105.558 155.71 105.558ZM191.681 92.566H171.292V129.284H177.371V113.279H188.83V108.41H177.371V97.4348H191.681V92.566ZM194.674 98.4569H200.538V92.5122H194.674V98.4569ZM200.403 102.115H194.808V129.284H200.403V102.115ZM212.918 92.566H207.296V129.284H212.918V92.566ZM224.948 102.115H219.757V129.284H225.379V113.494C225.379 110.822 225.711 108.903 226.374 107.737C227.038 106.554 228.149 105.962 229.71 105.962C230.517 105.962 231.171 106.159 231.673 106.554C232.193 106.948 232.543 107.495 232.722 108.195C232.92 108.876 233.018 110.391 233.018 112.741V129.284H238.64V113.359C238.64 108.428 240.057 105.962 242.89 105.962C244.217 105.962 245.096 106.419 245.526 107.334C245.975 108.248 246.199 109.988 246.199 112.552V129.284H251.821V112.095C251.821 108.813 251.606 106.581 251.175 105.397C250.745 104.213 249.974 103.263 248.862 102.546C247.768 101.828 246.396 101.47 244.746 101.47C241.429 101.47 239.133 103.155 237.86 106.527C237.161 103.155 235.089 101.47 231.646 101.47C228.508 101.47 226.275 103.066 224.948 106.258V102.115ZM270.496 109.647L274.88 108.464C273.571 103.801 270.648 101.47 266.111 101.47C263.439 101.47 261.26 102.286 259.574 103.918C257.889 105.531 257.046 107.495 257.046 109.809C257.046 111.225 257.396 112.498 258.095 113.628C258.794 114.74 259.682 115.592 260.758 116.184C261.852 116.775 263.466 117.412 265.6 118.094C267.824 118.811 269.178 119.51 269.662 120.192C270.146 120.855 270.388 121.528 270.388 122.209C270.388 123.195 270.029 124.047 269.312 124.765C268.613 125.482 267.537 125.841 266.084 125.841C263.233 125.841 261.502 124.28 260.893 121.16L256.131 122.048C256.902 127.32 260.166 129.956 265.923 129.956C268.971 129.956 271.392 129.131 273.186 127.481C274.979 125.814 275.875 123.778 275.875 121.375C275.875 119.241 275.248 117.582 273.993 116.399C272.737 115.197 270.684 114.121 267.833 113.171C265.519 112.418 264.04 111.79 263.394 111.288C262.749 110.786 262.426 109.997 262.426 108.921C262.426 107.97 262.74 107.172 263.367 106.527C264.013 105.881 264.856 105.558 265.896 105.558C268.155 105.558 269.689 106.921 270.496 109.647ZM281.851 96.9711C282.699 96.1152 283.122 95.0922 283.122 93.9021C283.122 92.7039 282.701 91.6789 281.857 90.827C281.013 89.9752 279.998 89.5493 278.812 89.5493C277.606 89.5493 276.577 89.9752 275.725 90.827C274.877 91.6789 274.453 92.7018 274.453 93.896C274.453 95.0902 274.879 96.1152 275.731 96.9711C276.583 97.8229 277.606 98.2488 278.8 98.2488C279.986 98.2488 281.003 97.8229 281.851 96.9711ZM281.301 91.3222C281.998 92.0395 282.346 92.8975 282.346 93.896C282.346 94.9068 281.995 95.7688 281.294 96.482C280.598 97.1953 279.764 97.5519 278.794 97.5519C277.816 97.5519 276.976 97.1953 276.275 96.482C275.578 95.7688 275.23 94.9068 275.23 93.896C275.23 92.8934 275.578 92.0355 276.275 91.3222C276.972 90.6049 277.816 90.2463 278.806 90.2463C279.776 90.2463 280.608 90.6049 281.301 91.3222ZM279.846 96.4025H280.97L280.047 94.2017C280.667 93.9449 280.977 93.5048 280.977 92.8812C280.977 92.4451 280.82 92.0885 280.506 91.8113C280.196 91.5342 279.723 91.3956 279.087 91.3956H276.764V96.4025H277.834V94.379H279.032L279.846 96.4025ZM278.935 93.5842H277.834V92.1842H279.014C279.585 92.1842 279.87 92.4125 279.87 92.8689C279.87 93.3458 279.558 93.5842 278.935 93.5842Z" fill="#181818"></path> </svg> 